<svg width="176" height="177" viewBox="0 0 176 177" fill="none" xmlns="http://www.w3.org/2000/svg">
<mask id="mask0_162_747" style="mask-type:luminance" maskUnits="userSpaceOnUse" x="0" y="0" width="176" height="177">
<path d="M54.7461 0.121582H48.5016V6.36616H54.7461V0.121582Z" fill="white"/>
<path d="M72.9342 0.121582H66.6896V6.36616H72.9342V0.121582Z" fill="white"/>
<path d="M78.9969 0.121582H72.7523V6.36616H78.9969V0.121582Z" fill="white"/>
<path d="M85.0596 0.121582H78.815V6.36616H85.0596V0.121582Z" fill="white"/>
<path d="M91.1223 0.121582H84.8777V6.36616H91.1223V0.121582Z" fill="white"/>
<path d="M103.248 0.121582H97.0031V6.36616H103.248V0.121582Z" fill="white"/>
<path d="M115.373 0.121582H109.129V6.36616H115.373V0.121582Z" fill="white"/>
<path d="M54.7461 6.18408H48.5016V12.4287H54.7461V6.18408Z" fill="white"/>
<path d="M66.8715 6.18408H60.6269V12.4287H66.8715V6.18408Z" fill="white"/>
<path d="M78.9969 6.18408H72.7523V12.4287H78.9969V6.18408Z" fill="white"/>
<path d="M85.0596 6.18408H78.815V12.4287H85.0596V6.18408Z" fill="white"/>
<path d="M91.1223 6.18408H84.8777V12.4287H91.1223V6.18408Z" fill="white"/>
<path d="M115.373 6.18408H109.129V12.4287H115.373V6.18408Z" fill="white"/>
<path d="M54.7461 12.2471H48.5016V18.4916H54.7461V12.2471Z" fill="white"/>
<path d="M72.9342 12.2471H66.6896V18.4916H72.9342V12.2471Z" fill="white"/>
<path d="M85.0596 12.2471H78.815V18.4916H85.0596V12.2471Z" fill="white"/>
<path d="M91.1223 12.2471H84.8777V18.4916H91.1223V12.2471Z" fill="white"/>
<path d="M97.185 12.2471H90.9404V18.4916H97.185V12.2471Z" fill="white"/>
<path d="M121.436 12.2471H115.191V18.4916H121.436V12.2471Z" fill="white"/>
<path d="M66.8715 18.3096H60.6269V24.5541H66.8715V18.3096Z" fill="white"/>
<path d="M72.9342 18.3096H66.6896V24.5541H72.9342V18.3096Z" fill="white"/>
<path d="M78.9969 18.3096H72.7523V24.5541H78.9969V18.3096Z" fill="white"/>
<path d="M85.0596 18.3096H78.815V24.5541H85.0596V18.3096Z" fill="white"/>
<path d="M109.31 18.3096H103.066V24.5541H109.31V18.3096Z" fill="white"/>
<path d="M60.8088 24.3721H54.5642V30.6166H60.8088V24.3721Z" fill="white"/>
<path d="M66.8715 24.3721H60.6269V30.6166H66.8715V24.3721Z" fill="white"/>
<path d="M72.9342 24.3721H66.6896V30.6166H72.9342V24.3721Z" fill="white"/>
<path d="M85.0596 24.3721H78.815V30.6166H85.0596V24.3721Z" fill="white"/>
<path d="M109.31 24.3721H103.066V30.6166H109.31V24.3721Z" fill="white"/>
<path d="M121.436 24.3721H115.191V30.6166H121.436V24.3721Z" fill="white"/>
<path d="M127.498 24.3721H121.254V30.6166H127.498V24.3721Z" fill="white"/>
<path d="M54.7461 30.4351H48.5016V36.6796H54.7461V30.4351Z" fill="white"/>
<path d="M91.1223 30.4351H84.8777V36.6796H91.1223V30.4351Z" fill="white"/>
<path d="M103.248 30.4351H97.0031V36.6796H103.248V30.4351Z" fill="white"/>
<path d="M109.31 30.4351H103.066V36.6796H109.31V30.4351Z" fill="white"/>
<path d="M54.7461 36.498H48.5016V42.7426H54.7461V36.498Z" fill="white"/>
<path d="M66.8715 36.498H60.6269V42.7426H66.8715V36.498Z" fill="white"/>
<path d="M78.9969 36.498H72.7523V42.7426H78.9969V36.498Z" fill="white"/>
<path d="M91.1223 36.498H84.8777V42.7426H91.1223V36.498Z" fill="white"/>
<path d="M103.248 36.498H97.0031V42.7426H103.248V36.498Z" fill="white"/>
<path d="M115.373 36.498H109.129V42.7426H115.373V36.498Z" fill="white"/>
<path d="M127.498 36.498H121.254V42.7426H127.498V36.498Z" fill="white"/>
<path d="M54.7461 42.5605H48.5016V48.8051H54.7461V42.5605Z" fill="white"/>
<path d="M85.0596 42.5605H78.815V48.8051H85.0596V42.5605Z" fill="white"/>
<path d="M103.248 42.5605H97.0031V48.8051H103.248V42.5605Z" fill="white"/>
<path d="M109.31 42.5605H103.066V48.8051H109.31V42.5605Z" fill="white"/>
<path d="M115.373 42.5605H109.129V48.8051H115.373V42.5605Z" fill="white"/>
<path d="M121.436 42.5605H115.191V48.8051H121.436V42.5605Z" fill="white"/>
<path d="M127.498 42.5605H121.254V48.8051H127.498V42.5605Z" fill="white"/>
<path d="M18.37 48.623H12.1254V54.8676H18.37V48.623Z" fill="white"/>
<path d="M24.4327 48.623H18.1881V54.8676H24.4327V48.623Z" fill="white"/>
<path d="M30.4954 48.623H24.2508V54.8676H30.4954V48.623Z" fill="white"/>
<path d="M42.6208 48.623H36.3762V54.8676H42.6208V48.623Z" fill="white"/>
<path d="M54.7461 48.623H48.5016V54.8676H54.7461V48.623Z" fill="white"/>
<path d="M72.9342 48.623H66.6896V54.8676H72.9342V48.623Z" fill="white"/>
<path d="M85.0596 48.623H78.815V54.8676H85.0596V48.623Z" fill="white"/>
<path d="M91.1223 48.623H84.8777V54.8676H91.1223V48.623Z" fill="white"/>
<path d="M97.185 48.623H90.9404V54.8676H97.185V48.623Z" fill="white"/>
<path d="M121.436 48.623H115.191V54.8676H121.436V48.623Z" fill="white"/>
<path d="M127.498 48.623H121.254V54.8676H127.498V48.623Z" fill="white"/>
<path d="M133.561 48.623H127.317V54.8676H133.561V48.623Z" fill="white"/>
<path d="M139.624 48.623H133.379V54.8676H139.624V48.623Z" fill="white"/>
<path d="M145.687 48.623H139.442V54.8676H145.687V48.623Z" fill="white"/>
<path d="M163.875 48.623H157.63V54.8676H163.875V48.623Z" fill="white"/>
<path d="M169.937 48.623H163.693V54.8676H169.937V48.623Z" fill="white"/>
<path d="M176 48.623H169.755V54.8676H176V48.623Z" fill="white"/>
<path d="M12.3073 54.6855H6.0627V60.9301H12.3073V54.6855Z" fill="white"/>
<path d="M30.4954 54.6855H24.2508V60.9301H30.4954V54.6855Z" fill="white"/>
<path d="M48.6834 54.6855H42.4389V60.9301H48.6834V54.6855Z" fill="white"/>
<path d="M54.7461 54.6855H48.5016V60.9301H54.7461V54.6855Z" fill="white"/>
<path d="M66.8715 54.6855H60.6269V60.9301H66.8715V54.6855Z" fill="white"/>
<path d="M78.9969 54.6855H72.7523V60.9301H78.9969V54.6855Z" fill="white"/>
<path d="M91.1223 54.6855H84.8777V60.9301H91.1223V54.6855Z" fill="white"/>
<path d="M97.185 54.6855H90.9404V60.9301H97.185V54.6855Z" fill="white"/>
<path d="M103.248 54.6855H97.0031V60.9301H103.248V54.6855Z" fill="white"/>
<path d="M109.31 54.6855H103.066V60.9301H109.31V54.6855Z" fill="white"/>
<path d="M115.373 54.6855H109.129V60.9301H115.373V54.6855Z" fill="white"/>
<path d="M121.436 54.6855H115.191V60.9301H121.436V54.6855Z" fill="white"/>
<path d="M127.498 54.6855H121.254V60.9301H127.498V54.6855Z" fill="white"/>
<path d="M145.687 54.6855H139.442V60.9301H145.687V54.6855Z" fill="white"/>
<path d="M151.749 54.6855H145.505V60.9301H151.749V54.6855Z" fill="white"/>
<path d="M157.812 54.6855H151.567V60.9301H157.812V54.6855Z" fill="white"/>
<path d="M163.875 54.6855H157.63V60.9301H163.875V54.6855Z" fill="white"/>
<path d="M176 54.6855H169.755V60.9301H176V54.6855Z" fill="white"/>
<path d="M6.24458 60.7485H0V66.9931H6.24458V60.7485Z" fill="white"/>
<path d="M24.4327 60.7485H18.1881V66.9931H24.4327V60.7485Z" fill="white"/>
<path d="M30.4954 60.7485H24.2508V66.9931H30.4954V60.7485Z" fill="white"/>
<path d="M42.6208 60.7485H36.3762V66.9931H42.6208V60.7485Z" fill="white"/>
<path d="M54.7461 60.7485H48.5016V66.9931H54.7461V60.7485Z" fill="white"/>
<path d="M60.8088 60.7485H54.5642V66.9931H60.8088V60.7485Z" fill="white"/>
<path d="M97.185 60.7485H90.9404V66.9931H97.185V60.7485Z" fill="white"/>
<path d="M127.498 60.7485H121.254V66.9931H127.498V60.7485Z" fill="white"/>
<path d="M133.561 60.7485H127.317V66.9931H133.561V60.7485Z" fill="white"/>
<path d="M139.624 60.7485H133.379V66.9931H139.624V60.7485Z" fill="white"/>
<path d="M157.812 60.7485H151.567V66.9931H157.812V60.7485Z" fill="white"/>
<path d="M163.875 60.7485H157.63V66.9931H163.875V60.7485Z" fill="white"/>
<path d="M6.24458 66.811H0V73.0556H6.24458V66.811Z" fill="white"/>
<path d="M24.4327 66.811H18.1881V73.0556H24.4327V66.811Z" fill="white"/>
<path d="M54.7461 66.811H48.5016V73.0556H54.7461V66.811Z" fill="white"/>
<path d="M66.8715 66.811H60.6269V73.0556H66.8715V66.811Z" fill="white"/>
<path d="M78.9969 66.811H72.7523V73.0556H78.9969V66.811Z" fill="white"/>
<path d="M91.1223 66.811H84.8777V73.0556H91.1223V66.811Z" fill="white"/>
<path d="M133.561 66.811H127.317V73.0556H133.561V66.811Z" fill="white"/>
<path d="M139.624 66.811H133.379V73.0556H139.624V66.811Z" fill="white"/>
<path d="M145.687 66.811H139.442V73.0556H145.687V66.811Z" fill="white"/>
<path d="M151.749 66.811H145.505V73.0556H151.749V66.811Z" fill="white"/>
<path d="M157.812 66.811H151.567V73.0556H157.812V66.811Z" fill="white"/>
<path d="M169.937 66.811H163.693V73.0556H169.937V66.811Z" fill="white"/>
<path d="M6.24458 72.8735H0V79.1181H6.24458V72.8735Z" fill="white"/>
<path d="M36.5581 72.8735H30.3135V79.1181H36.5581V72.8735Z" fill="white"/>
<path d="M42.6208 72.8735H36.3762V79.1181H42.6208V72.8735Z" fill="white"/>
<path d="M54.7461 72.8735H48.5016V79.1181H54.7461V72.8735Z" fill="white"/>
<path d="M60.8088 72.8735H54.5642V79.1181H60.8088V72.8735Z" fill="white"/>
<path d="M66.8715 72.8735H60.6269V79.1181H66.8715V72.8735Z" fill="white"/>
<path d="M85.0596 72.8735H78.815V79.1181H85.0596V72.8735Z" fill="white"/>
<path d="M91.1223 72.8735H84.8777V79.1181H91.1223V72.8735Z" fill="white"/>
<path d="M109.31 72.8735H103.066V79.1181H109.31V72.8735Z" fill="white"/>
<path d="M115.373 72.8735H109.129V79.1181H115.373V72.8735Z" fill="white"/>
<path d="M133.561 72.8735H127.317V79.1181H133.561V72.8735Z" fill="white"/>
<path d="M145.687 72.8735H139.442V79.1181H145.687V72.8735Z" fill="white"/>
<path d="M163.875 72.8735H157.63V79.1181H163.875V72.8735Z" fill="white"/>
<path d="M169.937 72.8735H163.693V79.1181H169.937V72.8735Z" fill="white"/>
<path d="M176 72.8735H169.755V79.1181H176V72.8735Z" fill="white"/>
<path d="M6.24458 78.937H0V85.1816H6.24458V78.937Z" fill="white"/>
<path d="M18.37 78.937H12.1254V85.1816H18.37V78.937Z" fill="white"/>
<path d="M30.4954 78.937H24.2508V85.1816H30.4954V78.937Z" fill="white"/>
<path d="M48.6834 78.937H42.4389V85.1816H48.6834V78.937Z" fill="white"/>
<path d="M54.7461 78.937H48.5016V85.1816H54.7461V78.937Z" fill="white"/>
<path d="M60.8088 78.937H54.5642V85.1816H60.8088V78.937Z" fill="white"/>
<path d="M72.9342 78.937H66.6896V85.1816H72.9342V78.937Z" fill="white"/>
<path d="M78.9969 78.937H72.7523V85.1816H78.9969V78.937Z" fill="white"/>
<path d="M115.373 78.937H109.129V85.1816H115.373V78.937Z" fill="white"/>
<path d="M121.436 78.937H115.191V85.1816H121.436V78.937Z" fill="white"/>
<path d="M133.561 78.937H127.317V85.1816H133.561V78.937Z" fill="white"/>
<path d="M139.624 78.937H133.379V85.1816H139.624V78.937Z" fill="white"/>
<path d="M151.749 78.937H145.505V85.1816H151.749V78.937Z" fill="white"/>
<path d="M157.812 78.937H151.567V85.1816H157.812V78.937Z" fill="white"/>
<path d="M169.937 78.937H163.693V85.1816H169.937V78.937Z" fill="white"/>
<path d="M176 78.937H169.755V85.1816H176V78.937Z" fill="white"/>
<path d="M12.3073 84.9995H6.0627V91.2441H12.3073V84.9995Z" fill="white"/>
<path d="M18.37 84.9995H12.1254V91.2441H18.37V84.9995Z" fill="white"/>
<path d="M42.6208 84.9995H36.3762V91.2441H42.6208V84.9995Z" fill="white"/>
<path d="M54.7461 84.9995H48.5016V91.2441H54.7461V84.9995Z" fill="white"/>
<path d="M72.9342 84.9995H66.6896V91.2441H72.9342V84.9995Z" fill="white"/>
<path d="M78.9969 84.9995H72.7523V91.2441H78.9969V84.9995Z" fill="white"/>
<path d="M85.0596 84.9995H78.815V91.2441H85.0596V84.9995Z" fill="white"/>
<path d="M109.31 84.9995H103.066V91.2441H109.31V84.9995Z" fill="white"/>
<path d="M115.373 84.9995H109.129V91.2441H115.373V84.9995Z" fill="white"/>
<path d="M127.498 84.9995H121.254V91.2441H127.498V84.9995Z" fill="white"/>
<path d="M133.561 84.9995H127.317V91.2441H133.561V84.9995Z" fill="white"/>
<path d="M145.687 84.9995H139.442V91.2441H145.687V84.9995Z" fill="white"/>
<path d="M169.937 84.9995H163.693V91.2441H169.937V84.9995Z" fill="white"/>
<path d="M24.4327 91.062H18.1881V97.3066H24.4327V91.062Z" fill="white"/>
<path d="M30.4954 91.062H24.2508V97.3066H30.4954V91.062Z" fill="white"/>
<path d="M36.5581 91.062H30.3135V97.3066H36.5581V91.062Z" fill="white"/>
<path d="M60.8088 91.062H54.5642V97.3066H60.8088V91.062Z" fill="white"/>
<path d="M78.9969 91.062H72.7523V97.3066H78.9969V91.062Z" fill="white"/>
<path d="M85.0596 91.062H78.815V97.3066H85.0596V91.062Z" fill="white"/>
<path d="M91.1223 91.062H84.8777V97.3066H91.1223V91.062Z" fill="white"/>
<path d="M97.185 91.062H90.9404V97.3066H97.185V91.062Z" fill="white"/>
<path d="M109.31 91.062H103.066V97.3066H109.31V91.062Z" fill="white"/>
<path d="M115.373 91.062H109.129V97.3066H115.373V91.062Z" fill="white"/>
<path d="M121.436 91.062H115.191V97.3066H121.436V91.062Z" fill="white"/>
<path d="M127.498 91.062H121.254V97.3066H127.498V91.062Z" fill="white"/>
<path d="M133.561 91.062H127.317V97.3066H133.561V91.062Z" fill="white"/>
<path d="M139.624 91.062H133.379V97.3066H139.624V91.062Z" fill="white"/>
<path d="M151.749 91.062H145.505V97.3066H151.749V91.062Z" fill="white"/>
<path d="M157.812 91.062H151.567V97.3066H157.812V91.062Z" fill="white"/>
<path d="M169.937 91.062H163.693V97.3066H169.937V91.062Z" fill="white"/>
<path d="M18.37 97.1245H12.1254V103.369H18.37V97.1245Z" fill="white"/>
<path d="M36.5581 97.1245H30.3135V103.369H36.5581V97.1245Z" fill="white"/>
<path d="M42.6208 97.1245H36.3762V103.369H42.6208V97.1245Z" fill="white"/>
<path d="M60.8088 97.1245H54.5642V103.369H60.8088V97.1245Z" fill="white"/>
<path d="M66.8715 97.1245H60.6269V103.369H66.8715V97.1245Z" fill="white"/>
<path d="M72.9342 97.1245H66.6896V103.369H72.9342V97.1245Z" fill="white"/>
<path d="M78.9969 97.1245H72.7523V103.369H78.9969V97.1245Z" fill="white"/>
<path d="M85.0596 97.1245H78.815V103.369H85.0596V97.1245Z" fill="white"/>
<path d="M97.185 97.1245H90.9404V103.369H97.185V97.1245Z" fill="white"/>
<path d="M109.31 97.1245H103.066V103.369H109.31V97.1245Z" fill="white"/>
<path d="M127.498 97.1245H121.254V103.369H127.498V97.1245Z" fill="white"/>
<path d="M133.561 97.1245H127.317V103.369H133.561V97.1245Z" fill="white"/>
<path d="M145.687 97.1245H139.442V103.369H145.687V97.1245Z" fill="white"/>
<path d="M151.749 97.1245H145.505V103.369H151.749V97.1245Z" fill="white"/>
<path d="M157.812 97.1245H151.567V103.369H157.812V97.1245Z" fill="white"/>
<path d="M163.875 97.1245H157.63V103.369H163.875V97.1245Z" fill="white"/>
<path d="M169.937 97.1245H163.693V103.369H169.937V97.1245Z" fill="white"/>
<path d="M6.24458 103.188H0V109.432H6.24458V103.188Z" fill="white"/>
<path d="M24.4327 103.188H18.1881V109.432H24.4327V103.188Z" fill="white"/>
<path d="M30.4954 103.188H24.2508V109.432H30.4954V103.188Z" fill="white"/>
<path d="M36.5581 103.188H30.3135V109.432H36.5581V103.188Z" fill="white"/>
<path d="M97.185 103.188H90.9404V109.432H97.185V103.188Z" fill="white"/>
<path d="M109.31 103.188H103.066V109.432H109.31V103.188Z" fill="white"/>
<path d="M115.373 103.188H109.129V109.432H115.373V103.188Z" fill="white"/>
<path d="M121.436 103.188H115.191V109.432H121.436V103.188Z" fill="white"/>
<path d="M127.498 103.188H121.254V109.432H127.498V103.188Z" fill="white"/>
<path d="M139.624 103.188H133.379V109.432H139.624V103.188Z" fill="white"/>
<path d="M145.687 103.188H139.442V109.432H145.687V103.188Z" fill="white"/>
<path d="M151.749 103.188H145.505V109.432H151.749V103.188Z" fill="white"/>
<path d="M157.812 103.188H151.567V109.432H157.812V103.188Z" fill="white"/>
<path d="M169.937 103.188H163.693V109.432H169.937V103.188Z" fill="white"/>
<path d="M176 103.188H169.755V109.432H176V103.188Z" fill="white"/>
<path d="M6.24458 109.25H0V115.495H6.24458V109.25Z" fill="white"/>
<path d="M18.37 109.25H12.1254V115.495H18.37V109.25Z" fill="white"/>
<path d="M24.4327 109.25H18.1881V115.495H24.4327V109.25Z" fill="white"/>
<path d="M30.4954 109.25H24.2508V115.495H30.4954V109.25Z" fill="white"/>
<path d="M42.6208 109.25H36.3762V115.495H42.6208V109.25Z" fill="white"/>
<path d="M48.6834 109.25H42.4389V115.495H48.6834V109.25Z" fill="white"/>
<path d="M54.7461 109.25H48.5016V115.495H54.7461V109.25Z" fill="white"/>
<path d="M78.9969 109.25H72.7523V115.495H78.9969V109.25Z" fill="white"/>
<path d="M85.0596 109.25H78.815V115.495H85.0596V109.25Z" fill="white"/>
<path d="M91.1223 109.25H84.8777V115.495H91.1223V109.25Z" fill="white"/>
<path d="M97.185 109.25H90.9404V115.495H97.185V109.25Z" fill="white"/>
<path d="M109.31 109.25H103.066V115.495H109.31V109.25Z" fill="white"/>
<path d="M127.498 109.25H121.254V115.495H127.498V109.25Z" fill="white"/>
<path d="M139.624 109.25H133.379V115.495H139.624V109.25Z" fill="white"/>
<path d="M163.875 109.25H157.63V115.495H163.875V109.25Z" fill="white"/>
<path d="M6.24458 115.312H0V121.557H6.24458V115.312Z" fill="white"/>
<path d="M36.5581 115.312H30.3135V121.557H36.5581V115.312Z" fill="white"/>
<path d="M60.8088 115.312H54.5642V121.557H60.8088V115.312Z" fill="white"/>
<path d="M66.8715 115.312H60.6269V121.557H66.8715V115.312Z" fill="white"/>
<path d="M121.436 115.312H115.191V121.557H121.436V115.312Z" fill="white"/>
<path d="M127.498 115.312H121.254V121.557H127.498V115.312Z" fill="white"/>
<path d="M139.624 115.312H133.379V121.557H139.624V115.312Z" fill="white"/>
<path d="M145.687 115.312H139.442V121.557H145.687V115.312Z" fill="white"/>
<path d="M157.812 115.312H151.567V121.557H157.812V115.312Z" fill="white"/>
<path d="M176 115.312H169.755V121.557H176V115.312Z" fill="white"/>
<path d="M6.24458 121.375H0V127.62H6.24458V121.375Z" fill="white"/>
<path d="M18.37 121.375H12.1254V127.62H18.37V121.375Z" fill="white"/>
<path d="M30.4954 121.375H24.2508V127.62H30.4954V121.375Z" fill="white"/>
<path d="M36.5581 121.375H30.3135V127.62H36.5581V121.375Z" fill="white"/>
<path d="M42.6208 121.375H36.3762V127.62H42.6208V121.375Z" fill="white"/>
<path d="M48.6834 121.375H42.4389V127.62H48.6834V121.375Z" fill="white"/>
<path d="M54.7461 121.375H48.5016V127.62H54.7461V121.375Z" fill="white"/>
<path d="M60.8088 121.375H54.5642V127.62H60.8088V121.375Z" fill="white"/>
<path d="M72.9342 121.375H66.6896V127.62H72.9342V121.375Z" fill="white"/>
<path d="M78.9969 121.375H72.7523V127.62H78.9969V121.375Z" fill="white"/>
<path d="M85.0596 121.375H78.815V127.62H85.0596V121.375Z" fill="white"/>
<path d="M91.1223 121.375H84.8777V127.62H91.1223V121.375Z" fill="white"/>
<path d="M103.248 121.375H97.0031V127.62H103.248V121.375Z" fill="white"/>
<path d="M109.31 121.375H103.066V127.62H109.31V121.375Z" fill="white"/>
<path d="M121.436 121.375H115.191V127.62H121.436V121.375Z" fill="white"/>
<path d="M127.498 121.375H121.254V127.62H127.498V121.375Z" fill="white"/>
<path d="M133.561 121.375H127.317V127.62H133.561V121.375Z" fill="white"/>
<path d="M139.624 121.375H133.379V127.62H139.624V121.375Z" fill="white"/>
<path d="M145.687 121.375H139.442V127.62H145.687V121.375Z" fill="white"/>
<path d="M151.749 121.375H145.505V127.62H151.749V121.375Z" fill="white"/>
<path d="M163.875 121.375H157.63V127.62H163.875V121.375Z" fill="white"/>
<path d="M54.7461 127.438H48.5016V133.683H54.7461V127.438Z" fill="white"/>
<path d="M66.8715 127.438H60.6269V133.683H66.8715V127.438Z" fill="white"/>
<path d="M72.9342 127.438H66.6896V133.683H72.9342V127.438Z" fill="white"/>
<path d="M78.9969 127.438H72.7523V133.683H78.9969V127.438Z" fill="white"/>
<path d="M85.0596 127.438H78.815V133.683H85.0596V127.438Z" fill="white"/>
<path d="M91.1223 127.438H84.8777V133.683H91.1223V127.438Z" fill="white"/>
<path d="M109.31 127.438H103.066V133.683H109.31V127.438Z" fill="white"/>
<path d="M121.436 127.438H115.191V133.683H121.436V127.438Z" fill="white"/>
<path d="M127.498 127.438H121.254V133.683H127.498V127.438Z" fill="white"/>
<path d="M151.749 127.438H145.505V133.683H151.749V127.438Z" fill="white"/>
<path d="M157.812 127.438H151.567V133.683H157.812V127.438Z" fill="white"/>
<path d="M176 127.438H169.755V133.683H176V127.438Z" fill="white"/>
<path d="M60.8088 133.501H54.5642V139.746H60.8088V133.501Z" fill="white"/>
<path d="M91.1223 133.501H84.8777V139.746H91.1223V133.501Z" fill="white"/>
<path d="M121.436 133.501H115.191V139.746H121.436V133.501Z" fill="white"/>
<path d="M127.498 133.501H121.254V139.746H127.498V133.501Z" fill="white"/>
<path d="M139.624 133.501H133.379V139.746H139.624V133.501Z" fill="white"/>
<path d="M151.749 133.501H145.505V139.746H151.749V133.501Z" fill="white"/>
<path d="M60.8088 139.563H54.5642V145.808H60.8088V139.563Z" fill="white"/>
<path d="M66.8715 139.563H60.6269V145.808H66.8715V139.563Z" fill="white"/>
<path d="M97.185 139.563H90.9404V145.808H97.185V139.563Z" fill="white"/>
<path d="M121.436 139.563H115.191V145.808H121.436V139.563Z" fill="white"/>
<path d="M127.498 139.563H121.254V145.808H127.498V139.563Z" fill="white"/>
<path d="M151.749 139.563H145.505V145.808H151.749V139.563Z" fill="white"/>
<path d="M157.812 139.563H151.567V145.808H157.812V139.563Z" fill="white"/>
<path d="M169.937 139.563H163.693V145.808H169.937V139.563Z" fill="white"/>
<path d="M54.7461 145.626H48.5016V151.871H54.7461V145.626Z" fill="white"/>
<path d="M85.0596 145.626H78.815V151.871H85.0596V145.626Z" fill="white"/>
<path d="M91.1223 145.626H84.8777V151.871H91.1223V145.626Z" fill="white"/>
<path d="M103.248 145.626H97.0031V151.871H103.248V145.626Z" fill="white"/>
<path d="M127.498 145.626H121.254V151.871H127.498V145.626Z" fill="white"/>
<path d="M133.561 145.626H127.317V151.871H133.561V145.626Z" fill="white"/>
<path d="M139.624 145.626H133.379V151.871H139.624V145.626Z" fill="white"/>
<path d="M145.687 145.626H139.442V151.871H145.687V145.626Z" fill="white"/>
<path d="M151.749 145.626H145.505V151.871H151.749V145.626Z" fill="white"/>
<path d="M157.812 145.626H151.567V151.871H157.812V145.626Z" fill="white"/>
<path d="M163.875 145.626H157.63V151.871H163.875V145.626Z" fill="white"/>
<path d="M169.937 145.626H163.693V151.871H169.937V145.626Z" fill="white"/>
<path d="M54.7461 151.689H48.5016V157.934H54.7461V151.689Z" fill="white"/>
<path d="M72.9342 151.689H66.6896V157.934H72.9342V151.689Z" fill="white"/>
<path d="M78.9969 151.689H72.7523V157.934H78.9969V151.689Z" fill="white"/>
<path d="M97.185 151.689H90.9404V157.934H97.185V151.689Z" fill="white"/>
<path d="M109.31 151.689H103.066V157.934H109.31V151.689Z" fill="white"/>
<path d="M115.373 151.689H109.129V157.934H115.373V151.689Z" fill="white"/>
<path d="M121.436 151.689H115.191V157.934H121.436V151.689Z" fill="white"/>
<path d="M127.498 151.689H121.254V157.934H127.498V151.689Z" fill="white"/>
<path d="M133.561 151.689H127.317V157.934H133.561V151.689Z" fill="white"/>
<path d="M145.687 151.689H139.442V157.934H145.687V151.689Z" fill="white"/>
<path d="M163.875 151.689H157.63V157.934H163.875V151.689Z" fill="white"/>
<path d="M54.7461 157.751H48.5016V163.996H54.7461V157.751Z" fill="white"/>
<path d="M60.8088 157.751H54.5642V163.996H60.8088V157.751Z" fill="white"/>
<path d="M66.8715 157.751H60.6269V163.996H66.8715V157.751Z" fill="white"/>
<path d="M72.9342 157.751H66.6896V163.996H72.9342V157.751Z" fill="white"/>
<path d="M85.0596 157.751H78.815V163.996H85.0596V157.751Z" fill="white"/>
<path d="M103.248 157.751H97.0031V163.996H103.248V157.751Z" fill="white"/>
<path d="M121.436 157.751H115.191V163.996H121.436V157.751Z" fill="white"/>
<path d="M127.498 157.751H121.254V163.996H127.498V157.751Z" fill="white"/>
<path d="M133.561 157.751H127.317V163.996H133.561V157.751Z" fill="white"/>
<path d="M139.624 157.751H133.379V163.996H139.624V157.751Z" fill="white"/>
<path d="M145.687 157.751H139.442V163.996H145.687V157.751Z" fill="white"/>
<path d="M151.749 157.751H145.505V163.996H151.749V157.751Z" fill="white"/>
<path d="M157.812 157.751H151.567V163.996H157.812V157.751Z" fill="white"/>
<path d="M163.875 157.751H157.63V163.996H163.875V157.751Z" fill="white"/>
<path d="M169.937 157.751H163.693V163.996H169.937V157.751Z" fill="white"/>
<path d="M66.8715 163.814H60.6269V170.059H66.8715V163.814Z" fill="white"/>
<path d="M78.9969 163.814H72.7523V170.059H78.9969V163.814Z" fill="white"/>
<path d="M97.185 163.814H90.9404V170.059H97.185V163.814Z" fill="white"/>
<path d="M103.248 163.814H97.0031V170.059H103.248V163.814Z" fill="white"/>
<path d="M109.31 163.814H103.066V170.059H109.31V163.814Z" fill="white"/>
<path d="M121.436 163.814H115.191V170.059H121.436V163.814Z" fill="white"/>
<path d="M127.498 163.814H121.254V170.059H127.498V163.814Z" fill="white"/>
<path d="M151.749 163.814H145.505V170.059H151.749V163.814Z" fill="white"/>
<path d="M157.812 163.814H151.567V170.059H157.812V163.814Z" fill="white"/>
<path d="M169.937 163.814H163.693V170.059H169.937V163.814Z" fill="white"/>
<path d="M66.8715 169.877H60.6269V176.122H66.8715V169.877Z" fill="white"/>
<path d="M72.9342 169.877H66.6896V176.122H72.9342V169.877Z" fill="white"/>
<path d="M97.185 169.877H90.9404V176.122H97.185V169.877Z" fill="white"/>
<path d="M103.248 169.877H97.0031V176.122H103.248V169.877Z" fill="white"/>
<path d="M139.624 169.877H133.379V176.122H139.624V169.877Z" fill="white"/>
<path d="M151.749 169.877H145.505V176.122H151.749V169.877Z" fill="white"/>
<path d="M163.875 169.877H157.63V176.122H163.875V169.877Z" fill="white"/>
</mask>
<g mask="url(#mask0_162_747)">
<path d="M187.944 -12.0039H-12.1254V188.065H187.944V-12.0039Z" fill="black"/>
</g>
</svg>
