<svg width="177" height="178" viewBox="0 0 177 178" fill="none" xmlns="http://www.w3.org/2000/svg">
<mask id="mask0_163_750" style="mask-type:luminance" maskUnits="userSpaceOnUse" x="1" y="1" width="176" height="177">
<path d="M55.7461 1.12158H49.5016V7.36616H55.7461V1.12158Z" fill="white"/>
<path d="M73.9342 1.12158H67.6896V7.36616H73.9342V1.12158Z" fill="white"/>
<path d="M79.9969 1.12158H73.7523V7.36616H79.9969V1.12158Z" fill="white"/>
<path d="M86.0596 1.12158H79.815V7.36616H86.0596V1.12158Z" fill="white"/>
<path d="M92.1223 1.12158H85.8777V7.36616H92.1223V1.12158Z" fill="white"/>
<path d="M104.248 1.12158H98.0031V7.36616H104.248V1.12158Z" fill="white"/>
<path d="M116.373 1.12158H110.129V7.36616H116.373V1.12158Z" fill="white"/>
<path d="M55.7461 7.18408H49.5016V13.4287H55.7461V7.18408Z" fill="white"/>
<path d="M67.8715 7.18408H61.6269V13.4287H67.8715V7.18408Z" fill="white"/>
<path d="M79.9969 7.18408H73.7523V13.4287H79.9969V7.18408Z" fill="white"/>
<path d="M86.0596 7.18408H79.815V13.4287H86.0596V7.18408Z" fill="white"/>
<path d="M92.1223 7.18408H85.8777V13.4287H92.1223V7.18408Z" fill="white"/>
<path d="M116.373 7.18408H110.129V13.4287H116.373V7.18408Z" fill="white"/>
<path d="M55.7461 13.2471H49.5016V19.4916H55.7461V13.2471Z" fill="white"/>
<path d="M73.9342 13.2471H67.6896V19.4916H73.9342V13.2471Z" fill="white"/>
<path d="M86.0596 13.2471H79.815V19.4916H86.0596V13.2471Z" fill="white"/>
<path d="M92.1223 13.2471H85.8777V19.4916H92.1223V13.2471Z" fill="white"/>
<path d="M98.185 13.2471H91.9404V19.4916H98.185V13.2471Z" fill="white"/>
<path d="M122.436 13.2471H116.191V19.4916H122.436V13.2471Z" fill="white"/>
<path d="M67.8715 19.3096H61.6269V25.5541H67.8715V19.3096Z" fill="white"/>
<path d="M73.9342 19.3096H67.6896V25.5541H73.9342V19.3096Z" fill="white"/>
<path d="M79.9969 19.3096H73.7523V25.5541H79.9969V19.3096Z" fill="white"/>
<path d="M86.0596 19.3096H79.815V25.5541H86.0596V19.3096Z" fill="white"/>
<path d="M110.31 19.3096H104.066V25.5541H110.31V19.3096Z" fill="white"/>
<path d="M61.8088 25.3721H55.5642V31.6166H61.8088V25.3721Z" fill="white"/>
<path d="M67.8715 25.3721H61.6269V31.6166H67.8715V25.3721Z" fill="white"/>
<path d="M73.9342 25.3721H67.6896V31.6166H73.9342V25.3721Z" fill="white"/>
<path d="M86.0596 25.3721H79.815V31.6166H86.0596V25.3721Z" fill="white"/>
<path d="M110.31 25.3721H104.066V31.6166H110.31V25.3721Z" fill="white"/>
<path d="M122.436 25.3721H116.191V31.6166H122.436V25.3721Z" fill="white"/>
<path d="M128.498 25.3721H122.254V31.6166H128.498V25.3721Z" fill="white"/>
<path d="M55.7461 31.4351H49.5016V37.6796H55.7461V31.4351Z" fill="white"/>
<path d="M92.1223 31.4351H85.8777V37.6796H92.1223V31.4351Z" fill="white"/>
<path d="M104.248 31.4351H98.0031V37.6796H104.248V31.4351Z" fill="white"/>
<path d="M110.31 31.4351H104.066V37.6796H110.31V31.4351Z" fill="white"/>
<path d="M55.7461 37.498H49.5016V43.7426H55.7461V37.498Z" fill="white"/>
<path d="M67.8715 37.498H61.6269V43.7426H67.8715V37.498Z" fill="white"/>
<path d="M79.9969 37.498H73.7523V43.7426H79.9969V37.498Z" fill="white"/>
<path d="M92.1223 37.498H85.8777V43.7426H92.1223V37.498Z" fill="white"/>
<path d="M104.248 37.498H98.0031V43.7426H104.248V37.498Z" fill="white"/>
<path d="M116.373 37.498H110.129V43.7426H116.373V37.498Z" fill="white"/>
<path d="M128.498 37.498H122.254V43.7426H128.498V37.498Z" fill="white"/>
<path d="M55.7461 43.5605H49.5016V49.8051H55.7461V43.5605Z" fill="white"/>
<path d="M86.0596 43.5605H79.815V49.8051H86.0596V43.5605Z" fill="white"/>
<path d="M104.248 43.5605H98.0031V49.8051H104.248V43.5605Z" fill="white"/>
<path d="M110.31 43.5605H104.066V49.8051H110.31V43.5605Z" fill="white"/>
<path d="M116.373 43.5605H110.129V49.8051H116.373V43.5605Z" fill="white"/>
<path d="M122.436 43.5605H116.191V49.8051H122.436V43.5605Z" fill="white"/>
<path d="M128.498 43.5605H122.254V49.8051H128.498V43.5605Z" fill="white"/>
<path d="M19.37 49.623H13.1254V55.8676H19.37V49.623Z" fill="white"/>
<path d="M25.4327 49.623H19.1881V55.8676H25.4327V49.623Z" fill="white"/>
<path d="M31.4954 49.623H25.2508V55.8676H31.4954V49.623Z" fill="white"/>
<path d="M43.6208 49.623H37.3762V55.8676H43.6208V49.623Z" fill="white"/>
<path d="M55.7461 49.623H49.5016V55.8676H55.7461V49.623Z" fill="white"/>
<path d="M73.9342 49.623H67.6896V55.8676H73.9342V49.623Z" fill="white"/>
<path d="M86.0596 49.623H79.815V55.8676H86.0596V49.623Z" fill="white"/>
<path d="M92.1223 49.623H85.8777V55.8676H92.1223V49.623Z" fill="white"/>
<path d="M98.185 49.623H91.9404V55.8676H98.185V49.623Z" fill="white"/>
<path d="M122.436 49.623H116.191V55.8676H122.436V49.623Z" fill="white"/>
<path d="M128.498 49.623H122.254V55.8676H128.498V49.623Z" fill="white"/>
<path d="M134.561 49.623H128.317V55.8676H134.561V49.623Z" fill="white"/>
<path d="M140.624 49.623H134.379V55.8676H140.624V49.623Z" fill="white"/>
<path d="M146.687 49.623H140.442V55.8676H146.687V49.623Z" fill="white"/>
<path d="M164.875 49.623H158.63V55.8676H164.875V49.623Z" fill="white"/>
<path d="M170.937 49.623H164.693V55.8676H170.937V49.623Z" fill="white"/>
<path d="M177 49.623H170.755V55.8676H177V49.623Z" fill="white"/>
<path d="M13.3073 55.6855H7.0627V61.9301H13.3073V55.6855Z" fill="white"/>
<path d="M31.4954 55.6855H25.2508V61.9301H31.4954V55.6855Z" fill="white"/>
<path d="M49.6834 55.6855H43.4389V61.9301H49.6834V55.6855Z" fill="white"/>
<path d="M55.7461 55.6855H49.5016V61.9301H55.7461V55.6855Z" fill="white"/>
<path d="M67.8715 55.6855H61.6269V61.9301H67.8715V55.6855Z" fill="white"/>
<path d="M79.9969 55.6855H73.7523V61.9301H79.9969V55.6855Z" fill="white"/>
<path d="M92.1223 55.6855H85.8777V61.9301H92.1223V55.6855Z" fill="white"/>
<path d="M98.185 55.6855H91.9404V61.9301H98.185V55.6855Z" fill="white"/>
<path d="M104.248 55.6855H98.0031V61.9301H104.248V55.6855Z" fill="white"/>
<path d="M110.31 55.6855H104.066V61.9301H110.31V55.6855Z" fill="white"/>
<path d="M116.373 55.6855H110.129V61.9301H116.373V55.6855Z" fill="white"/>
<path d="M122.436 55.6855H116.191V61.9301H122.436V55.6855Z" fill="white"/>
<path d="M128.498 55.6855H122.254V61.9301H128.498V55.6855Z" fill="white"/>
<path d="M146.687 55.6855H140.442V61.9301H146.687V55.6855Z" fill="white"/>
<path d="M152.749 55.6855H146.505V61.9301H152.749V55.6855Z" fill="white"/>
<path d="M158.812 55.6855H152.567V61.9301H158.812V55.6855Z" fill="white"/>
<path d="M164.875 55.6855H158.63V61.9301H164.875V55.6855Z" fill="white"/>
<path d="M177 55.6855H170.755V61.9301H177V55.6855Z" fill="white"/>
<path d="M7.24458 61.7485H1V67.9931H7.24458V61.7485Z" fill="white"/>
<path d="M25.4327 61.7485H19.1881V67.9931H25.4327V61.7485Z" fill="white"/>
<path d="M31.4954 61.7485H25.2508V67.9931H31.4954V61.7485Z" fill="white"/>
<path d="M43.6208 61.7485H37.3762V67.9931H43.6208V61.7485Z" fill="white"/>
<path d="M55.7461 61.7485H49.5016V67.9931H55.7461V61.7485Z" fill="white"/>
<path d="M61.8088 61.7485H55.5642V67.9931H61.8088V61.7485Z" fill="white"/>
<path d="M98.185 61.7485H91.9404V67.9931H98.185V61.7485Z" fill="white"/>
<path d="M128.498 61.7485H122.254V67.9931H128.498V61.7485Z" fill="white"/>
<path d="M134.561 61.7485H128.317V67.9931H134.561V61.7485Z" fill="white"/>
<path d="M140.624 61.7485H134.379V67.9931H140.624V61.7485Z" fill="white"/>
<path d="M158.812 61.7485H152.567V67.9931H158.812V61.7485Z" fill="white"/>
<path d="M164.875 61.7485H158.63V67.9931H164.875V61.7485Z" fill="white"/>
<path d="M7.24458 67.811H1V74.0556H7.24458V67.811Z" fill="white"/>
<path d="M25.4327 67.811H19.1881V74.0556H25.4327V67.811Z" fill="white"/>
<path d="M55.7461 67.811H49.5016V74.0556H55.7461V67.811Z" fill="white"/>
<path d="M67.8715 67.811H61.6269V74.0556H67.8715V67.811Z" fill="white"/>
<path d="M79.9969 67.811H73.7523V74.0556H79.9969V67.811Z" fill="white"/>
<path d="M92.1223 67.811H85.8777V74.0556H92.1223V67.811Z" fill="white"/>
<path d="M134.561 67.811H128.317V74.0556H134.561V67.811Z" fill="white"/>
<path d="M140.624 67.811H134.379V74.0556H140.624V67.811Z" fill="white"/>
<path d="M146.687 67.811H140.442V74.0556H146.687V67.811Z" fill="white"/>
<path d="M152.749 67.811H146.505V74.0556H152.749V67.811Z" fill="white"/>
<path d="M158.812 67.811H152.567V74.0556H158.812V67.811Z" fill="white"/>
<path d="M170.937 67.811H164.693V74.0556H170.937V67.811Z" fill="white"/>
<path d="M7.24458 73.8735H1V80.1181H7.24458V73.8735Z" fill="white"/>
<path d="M37.5581 73.8735H31.3135V80.1181H37.5581V73.8735Z" fill="white"/>
<path d="M43.6208 73.8735H37.3762V80.1181H43.6208V73.8735Z" fill="white"/>
<path d="M55.7461 73.8735H49.5016V80.1181H55.7461V73.8735Z" fill="white"/>
<path d="M61.8088 73.8735H55.5642V80.1181H61.8088V73.8735Z" fill="white"/>
<path d="M67.8715 73.8735H61.6269V80.1181H67.8715V73.8735Z" fill="white"/>
<path d="M86.0596 73.8735H79.815V80.1181H86.0596V73.8735Z" fill="white"/>
<path d="M92.1223 73.8735H85.8777V80.1181H92.1223V73.8735Z" fill="white"/>
<path d="M110.31 73.8735H104.066V80.1181H110.31V73.8735Z" fill="white"/>
<path d="M116.373 73.8735H110.129V80.1181H116.373V73.8735Z" fill="white"/>
<path d="M134.561 73.8735H128.317V80.1181H134.561V73.8735Z" fill="white"/>
<path d="M146.687 73.8735H140.442V80.1181H146.687V73.8735Z" fill="white"/>
<path d="M164.875 73.8735H158.63V80.1181H164.875V73.8735Z" fill="white"/>
<path d="M170.937 73.8735H164.693V80.1181H170.937V73.8735Z" fill="white"/>
<path d="M177 73.8735H170.755V80.1181H177V73.8735Z" fill="white"/>
<path d="M7.24458 79.937H1V86.1816H7.24458V79.937Z" fill="white"/>
<path d="M19.37 79.937H13.1254V86.1816H19.37V79.937Z" fill="white"/>
<path d="M31.4954 79.937H25.2508V86.1816H31.4954V79.937Z" fill="white"/>
<path d="M49.6834 79.937H43.4389V86.1816H49.6834V79.937Z" fill="white"/>
<path d="M55.7461 79.937H49.5016V86.1816H55.7461V79.937Z" fill="white"/>
<path d="M61.8088 79.937H55.5642V86.1816H61.8088V79.937Z" fill="white"/>
<path d="M73.9342 79.937H67.6896V86.1816H73.9342V79.937Z" fill="white"/>
<path d="M79.9969 79.937H73.7523V86.1816H79.9969V79.937Z" fill="white"/>
<path d="M116.373 79.937H110.129V86.1816H116.373V79.937Z" fill="white"/>
<path d="M122.436 79.937H116.191V86.1816H122.436V79.937Z" fill="white"/>
<path d="M134.561 79.937H128.317V86.1816H134.561V79.937Z" fill="white"/>
<path d="M140.624 79.937H134.379V86.1816H140.624V79.937Z" fill="white"/>
<path d="M152.749 79.937H146.505V86.1816H152.749V79.937Z" fill="white"/>
<path d="M158.812 79.937H152.567V86.1816H158.812V79.937Z" fill="white"/>
<path d="M170.937 79.937H164.693V86.1816H170.937V79.937Z" fill="white"/>
<path d="M177 79.937H170.755V86.1816H177V79.937Z" fill="white"/>
<path d="M13.3073 85.9995H7.0627V92.2441H13.3073V85.9995Z" fill="white"/>
<path d="M19.37 85.9995H13.1254V92.2441H19.37V85.9995Z" fill="white"/>
<path d="M43.6208 85.9995H37.3762V92.2441H43.6208V85.9995Z" fill="white"/>
<path d="M55.7461 85.9995H49.5016V92.2441H55.7461V85.9995Z" fill="white"/>
<path d="M73.9342 85.9995H67.6896V92.2441H73.9342V85.9995Z" fill="white"/>
<path d="M79.9969 85.9995H73.7523V92.2441H79.9969V85.9995Z" fill="white"/>
<path d="M86.0596 85.9995H79.815V92.2441H86.0596V85.9995Z" fill="white"/>
<path d="M110.31 85.9995H104.066V92.2441H110.31V85.9995Z" fill="white"/>
<path d="M116.373 85.9995H110.129V92.2441H116.373V85.9995Z" fill="white"/>
<path d="M128.498 85.9995H122.254V92.2441H128.498V85.9995Z" fill="white"/>
<path d="M134.561 85.9995H128.317V92.2441H134.561V85.9995Z" fill="white"/>
<path d="M146.687 85.9995H140.442V92.2441H146.687V85.9995Z" fill="white"/>
<path d="M170.937 85.9995H164.693V92.2441H170.937V85.9995Z" fill="white"/>
<path d="M25.4327 92.062H19.1881V98.3066H25.4327V92.062Z" fill="white"/>
<path d="M31.4954 92.062H25.2508V98.3066H31.4954V92.062Z" fill="white"/>
<path d="M37.5581 92.062H31.3135V98.3066H37.5581V92.062Z" fill="white"/>
<path d="M61.8088 92.062H55.5642V98.3066H61.8088V92.062Z" fill="white"/>
<path d="M79.9969 92.062H73.7523V98.3066H79.9969V92.062Z" fill="white"/>
<path d="M86.0596 92.062H79.815V98.3066H86.0596V92.062Z" fill="white"/>
<path d="M92.1223 92.062H85.8777V98.3066H92.1223V92.062Z" fill="white"/>
<path d="M98.185 92.062H91.9404V98.3066H98.185V92.062Z" fill="white"/>
<path d="M110.31 92.062H104.066V98.3066H110.31V92.062Z" fill="white"/>
<path d="M116.373 92.062H110.129V98.3066H116.373V92.062Z" fill="white"/>
<path d="M122.436 92.062H116.191V98.3066H122.436V92.062Z" fill="white"/>
<path d="M128.498 92.062H122.254V98.3066H128.498V92.062Z" fill="white"/>
<path d="M134.561 92.062H128.317V98.3066H134.561V92.062Z" fill="white"/>
<path d="M140.624 92.062H134.379V98.3066H140.624V92.062Z" fill="white"/>
<path d="M152.749 92.062H146.505V98.3066H152.749V92.062Z" fill="white"/>
<path d="M158.812 92.062H152.567V98.3066H158.812V92.062Z" fill="white"/>
<path d="M170.937 92.062H164.693V98.3066H170.937V92.062Z" fill="white"/>
<path d="M19.37 98.1245H13.1254V104.369H19.37V98.1245Z" fill="white"/>
<path d="M37.5581 98.1245H31.3135V104.369H37.5581V98.1245Z" fill="white"/>
<path d="M43.6208 98.1245H37.3762V104.369H43.6208V98.1245Z" fill="white"/>
<path d="M61.8088 98.1245H55.5642V104.369H61.8088V98.1245Z" fill="white"/>
<path d="M67.8715 98.1245H61.6269V104.369H67.8715V98.1245Z" fill="white"/>
<path d="M73.9342 98.1245H67.6896V104.369H73.9342V98.1245Z" fill="white"/>
<path d="M79.9969 98.1245H73.7523V104.369H79.9969V98.1245Z" fill="white"/>
<path d="M86.0596 98.1245H79.815V104.369H86.0596V98.1245Z" fill="white"/>
<path d="M98.185 98.1245H91.9404V104.369H98.185V98.1245Z" fill="white"/>
<path d="M110.31 98.1245H104.066V104.369H110.31V98.1245Z" fill="white"/>
<path d="M128.498 98.1245H122.254V104.369H128.498V98.1245Z" fill="white"/>
<path d="M134.561 98.1245H128.317V104.369H134.561V98.1245Z" fill="white"/>
<path d="M146.687 98.1245H140.442V104.369H146.687V98.1245Z" fill="white"/>
<path d="M152.749 98.1245H146.505V104.369H152.749V98.1245Z" fill="white"/>
<path d="M158.812 98.1245H152.567V104.369H158.812V98.1245Z" fill="white"/>
<path d="M164.875 98.1245H158.63V104.369H164.875V98.1245Z" fill="white"/>
<path d="M170.937 98.1245H164.693V104.369H170.937V98.1245Z" fill="white"/>
<path d="M7.24458 104.188H1V110.432H7.24458V104.188Z" fill="white"/>
<path d="M25.4327 104.188H19.1881V110.432H25.4327V104.188Z" fill="white"/>
<path d="M31.4954 104.188H25.2508V110.432H31.4954V104.188Z" fill="white"/>
<path d="M37.5581 104.188H31.3135V110.432H37.5581V104.188Z" fill="white"/>
<path d="M98.185 104.188H91.9404V110.432H98.185V104.188Z" fill="white"/>
<path d="M110.31 104.188H104.066V110.432H110.31V104.188Z" fill="white"/>
<path d="M116.373 104.188H110.129V110.432H116.373V104.188Z" fill="white"/>
<path d="M122.436 104.188H116.191V110.432H122.436V104.188Z" fill="white"/>
<path d="M128.498 104.188H122.254V110.432H128.498V104.188Z" fill="white"/>
<path d="M140.624 104.188H134.379V110.432H140.624V104.188Z" fill="white"/>
<path d="M146.687 104.188H140.442V110.432H146.687V104.188Z" fill="white"/>
<path d="M152.749 104.188H146.505V110.432H152.749V104.188Z" fill="white"/>
<path d="M158.812 104.188H152.567V110.432H158.812V104.188Z" fill="white"/>
<path d="M170.937 104.188H164.693V110.432H170.937V104.188Z" fill="white"/>
<path d="M177 104.188H170.755V110.432H177V104.188Z" fill="white"/>
<path d="M7.24458 110.25H1V116.495H7.24458V110.25Z" fill="white"/>
<path d="M19.37 110.25H13.1254V116.495H19.37V110.25Z" fill="white"/>
<path d="M25.4327 110.25H19.1881V116.495H25.4327V110.25Z" fill="white"/>
<path d="M31.4954 110.25H25.2508V116.495H31.4954V110.25Z" fill="white"/>
<path d="M43.6208 110.25H37.3762V116.495H43.6208V110.25Z" fill="white"/>
<path d="M49.6834 110.25H43.4389V116.495H49.6834V110.25Z" fill="white"/>
<path d="M55.7461 110.25H49.5016V116.495H55.7461V110.25Z" fill="white"/>
<path d="M79.9969 110.25H73.7523V116.495H79.9969V110.25Z" fill="white"/>
<path d="M86.0596 110.25H79.815V116.495H86.0596V110.25Z" fill="white"/>
<path d="M92.1223 110.25H85.8777V116.495H92.1223V110.25Z" fill="white"/>
<path d="M98.185 110.25H91.9404V116.495H98.185V110.25Z" fill="white"/>
<path d="M110.31 110.25H104.066V116.495H110.31V110.25Z" fill="white"/>
<path d="M128.498 110.25H122.254V116.495H128.498V110.25Z" fill="white"/>
<path d="M140.624 110.25H134.379V116.495H140.624V110.25Z" fill="white"/>
<path d="M164.875 110.25H158.63V116.495H164.875V110.25Z" fill="white"/>
<path d="M7.24458 116.312H1V122.557H7.24458V116.312Z" fill="white"/>
<path d="M37.5581 116.312H31.3135V122.557H37.5581V116.312Z" fill="white"/>
<path d="M61.8088 116.312H55.5642V122.557H61.8088V116.312Z" fill="white"/>
<path d="M67.8715 116.312H61.6269V122.557H67.8715V116.312Z" fill="white"/>
<path d="M122.436 116.312H116.191V122.557H122.436V116.312Z" fill="white"/>
<path d="M128.498 116.312H122.254V122.557H128.498V116.312Z" fill="white"/>
<path d="M140.624 116.312H134.379V122.557H140.624V116.312Z" fill="white"/>
<path d="M146.687 116.312H140.442V122.557H146.687V116.312Z" fill="white"/>
<path d="M158.812 116.312H152.567V122.557H158.812V116.312Z" fill="white"/>
<path d="M177 116.312H170.755V122.557H177V116.312Z" fill="white"/>
<path d="M7.24458 122.375H1V128.62H7.24458V122.375Z" fill="white"/>
<path d="M19.37 122.375H13.1254V128.62H19.37V122.375Z" fill="white"/>
<path d="M31.4954 122.375H25.2508V128.62H31.4954V122.375Z" fill="white"/>
<path d="M37.5581 122.375H31.3135V128.62H37.5581V122.375Z" fill="white"/>
<path d="M43.6208 122.375H37.3762V128.62H43.6208V122.375Z" fill="white"/>
<path d="M49.6834 122.375H43.4389V128.62H49.6834V122.375Z" fill="white"/>
<path d="M55.7461 122.375H49.5016V128.62H55.7461V122.375Z" fill="white"/>
<path d="M61.8088 122.375H55.5642V128.62H61.8088V122.375Z" fill="white"/>
<path d="M73.9342 122.375H67.6896V128.62H73.9342V122.375Z" fill="white"/>
<path d="M79.9969 122.375H73.7523V128.62H79.9969V122.375Z" fill="white"/>
<path d="M86.0596 122.375H79.815V128.62H86.0596V122.375Z" fill="white"/>
<path d="M92.1223 122.375H85.8777V128.62H92.1223V122.375Z" fill="white"/>
<path d="M104.248 122.375H98.0031V128.62H104.248V122.375Z" fill="white"/>
<path d="M110.31 122.375H104.066V128.62H110.31V122.375Z" fill="white"/>
<path d="M122.436 122.375H116.191V128.62H122.436V122.375Z" fill="white"/>
<path d="M128.498 122.375H122.254V128.62H128.498V122.375Z" fill="white"/>
<path d="M134.561 122.375H128.317V128.62H134.561V122.375Z" fill="white"/>
<path d="M140.624 122.375H134.379V128.62H140.624V122.375Z" fill="white"/>
<path d="M146.687 122.375H140.442V128.62H146.687V122.375Z" fill="white"/>
<path d="M152.749 122.375H146.505V128.62H152.749V122.375Z" fill="white"/>
<path d="M164.875 122.375H158.63V128.62H164.875V122.375Z" fill="white"/>
<path d="M55.7461 128.438H49.5016V134.683H55.7461V128.438Z" fill="white"/>
<path d="M67.8715 128.438H61.6269V134.683H67.8715V128.438Z" fill="white"/>
<path d="M73.9342 128.438H67.6896V134.683H73.9342V128.438Z" fill="white"/>
<path d="M79.9969 128.438H73.7523V134.683H79.9969V128.438Z" fill="white"/>
<path d="M86.0596 128.438H79.815V134.683H86.0596V128.438Z" fill="white"/>
<path d="M92.1223 128.438H85.8777V134.683H92.1223V128.438Z" fill="white"/>
<path d="M110.31 128.438H104.066V134.683H110.31V128.438Z" fill="white"/>
<path d="M122.436 128.438H116.191V134.683H122.436V128.438Z" fill="white"/>
<path d="M128.498 128.438H122.254V134.683H128.498V128.438Z" fill="white"/>
<path d="M152.749 128.438H146.505V134.683H152.749V128.438Z" fill="white"/>
<path d="M158.812 128.438H152.567V134.683H158.812V128.438Z" fill="white"/>
<path d="M177 128.438H170.755V134.683H177V128.438Z" fill="white"/>
<path d="M61.8088 134.501H55.5642V140.746H61.8088V134.501Z" fill="white"/>
<path d="M92.1223 134.501H85.8777V140.746H92.1223V134.501Z" fill="white"/>
<path d="M122.436 134.501H116.191V140.746H122.436V134.501Z" fill="white"/>
<path d="M128.498 134.501H122.254V140.746H128.498V134.501Z" fill="white"/>
<path d="M140.624 134.501H134.379V140.746H140.624V134.501Z" fill="white"/>
<path d="M152.749 134.501H146.505V140.746H152.749V134.501Z" fill="white"/>
<path d="M61.8088 140.563H55.5642V146.808H61.8088V140.563Z" fill="white"/>
<path d="M67.8715 140.563H61.6269V146.808H67.8715V140.563Z" fill="white"/>
<path d="M98.185 140.563H91.9404V146.808H98.185V140.563Z" fill="white"/>
<path d="M122.436 140.563H116.191V146.808H122.436V140.563Z" fill="white"/>
<path d="M128.498 140.563H122.254V146.808H128.498V140.563Z" fill="white"/>
<path d="M152.749 140.563H146.505V146.808H152.749V140.563Z" fill="white"/>
<path d="M158.812 140.563H152.567V146.808H158.812V140.563Z" fill="white"/>
<path d="M170.937 140.563H164.693V146.808H170.937V140.563Z" fill="white"/>
<path d="M55.7461 146.626H49.5016V152.871H55.7461V146.626Z" fill="white"/>
<path d="M86.0596 146.626H79.815V152.871H86.0596V146.626Z" fill="white"/>
<path d="M92.1223 146.626H85.8777V152.871H92.1223V146.626Z" fill="white"/>
<path d="M104.248 146.626H98.0031V152.871H104.248V146.626Z" fill="white"/>
<path d="M128.498 146.626H122.254V152.871H128.498V146.626Z" fill="white"/>
<path d="M134.561 146.626H128.317V152.871H134.561V146.626Z" fill="white"/>
<path d="M140.624 146.626H134.379V152.871H140.624V146.626Z" fill="white"/>
<path d="M146.687 146.626H140.442V152.871H146.687V146.626Z" fill="white"/>
<path d="M152.749 146.626H146.505V152.871H152.749V146.626Z" fill="white"/>
<path d="M158.812 146.626H152.567V152.871H158.812V146.626Z" fill="white"/>
<path d="M164.875 146.626H158.63V152.871H164.875V146.626Z" fill="white"/>
<path d="M170.937 146.626H164.693V152.871H170.937V146.626Z" fill="white"/>
<path d="M55.7461 152.689H49.5016V158.934H55.7461V152.689Z" fill="white"/>
<path d="M73.9342 152.689H67.6896V158.934H73.9342V152.689Z" fill="white"/>
<path d="M79.9969 152.689H73.7523V158.934H79.9969V152.689Z" fill="white"/>
<path d="M98.185 152.689H91.9404V158.934H98.185V152.689Z" fill="white"/>
<path d="M110.31 152.689H104.066V158.934H110.31V152.689Z" fill="white"/>
<path d="M116.373 152.689H110.129V158.934H116.373V152.689Z" fill="white"/>
<path d="M122.436 152.689H116.191V158.934H122.436V152.689Z" fill="white"/>
<path d="M128.498 152.689H122.254V158.934H128.498V152.689Z" fill="white"/>
<path d="M134.561 152.689H128.317V158.934H134.561V152.689Z" fill="white"/>
<path d="M146.687 152.689H140.442V158.934H146.687V152.689Z" fill="white"/>
<path d="M164.875 152.689H158.63V158.934H164.875V152.689Z" fill="white"/>
<path d="M55.7461 158.751H49.5016V164.996H55.7461V158.751Z" fill="white"/>
<path d="M61.8088 158.751H55.5642V164.996H61.8088V158.751Z" fill="white"/>
<path d="M67.8715 158.751H61.6269V164.996H67.8715V158.751Z" fill="white"/>
<path d="M73.9342 158.751H67.6896V164.996H73.9342V158.751Z" fill="white"/>
<path d="M86.0596 158.751H79.815V164.996H86.0596V158.751Z" fill="white"/>
<path d="M104.248 158.751H98.0031V164.996H104.248V158.751Z" fill="white"/>
<path d="M122.436 158.751H116.191V164.996H122.436V158.751Z" fill="white"/>
<path d="M128.498 158.751H122.254V164.996H128.498V158.751Z" fill="white"/>
<path d="M134.561 158.751H128.317V164.996H134.561V158.751Z" fill="white"/>
<path d="M140.624 158.751H134.379V164.996H140.624V158.751Z" fill="white"/>
<path d="M146.687 158.751H140.442V164.996H146.687V158.751Z" fill="white"/>
<path d="M152.749 158.751H146.505V164.996H152.749V158.751Z" fill="white"/>
<path d="M158.812 158.751H152.567V164.996H158.812V158.751Z" fill="white"/>
<path d="M164.875 158.751H158.63V164.996H164.875V158.751Z" fill="white"/>
<path d="M170.937 158.751H164.693V164.996H170.937V158.751Z" fill="white"/>
<path d="M67.8715 164.814H61.6269V171.059H67.8715V164.814Z" fill="white"/>
<path d="M79.9969 164.814H73.7523V171.059H79.9969V164.814Z" fill="white"/>
<path d="M98.185 164.814H91.9404V171.059H98.185V164.814Z" fill="white"/>
<path d="M104.248 164.814H98.0031V171.059H104.248V164.814Z" fill="white"/>
<path d="M110.31 164.814H104.066V171.059H110.31V164.814Z" fill="white"/>
<path d="M122.436 164.814H116.191V171.059H122.436V164.814Z" fill="white"/>
<path d="M128.498 164.814H122.254V171.059H128.498V164.814Z" fill="white"/>
<path d="M152.749 164.814H146.505V171.059H152.749V164.814Z" fill="white"/>
<path d="M158.812 164.814H152.567V171.059H158.812V164.814Z" fill="white"/>
<path d="M170.937 164.814H164.693V171.059H170.937V164.814Z" fill="white"/>
<path d="M67.8715 170.877H61.6269V177.122H67.8715V170.877Z" fill="white"/>
<path d="M73.9342 170.877H67.6896V177.122H73.9342V170.877Z" fill="white"/>
<path d="M98.185 170.877H91.9404V177.122H98.185V170.877Z" fill="white"/>
<path d="M104.248 170.877H98.0031V177.122H104.248V170.877Z" fill="white"/>
<path d="M140.624 170.877H134.379V177.122H140.624V170.877Z" fill="white"/>
<path d="M152.749 170.877H146.505V177.122H152.749V170.877Z" fill="white"/>
<path d="M164.875 170.877H158.63V177.122H164.875V170.877Z" fill="white"/>
</mask>
<g mask="url(#mask0_163_750)">
<path d="M188.944 -11.0039H-11.1254V189.065H188.944V-11.0039Z" fill="black"/>
</g>
<path d="M0.764709 0.764648V43.1889H43.1889V0.764648H0.764709ZM37.1283 37.1283H6.82531V6.82525H37.1283V37.1283Z" fill="black"/>
<path d="M31.0677 12.8857H12.8859V31.0676H31.0677V12.8857Z" fill="black"/>
<path d="M134.098 0.764648V43.1889H176.522V0.764648H134.098ZM170.462 37.1283H140.159V6.82525H170.462V37.1283Z" fill="black"/>
<path d="M164.401 12.8857H146.219V31.0676H164.401V12.8857Z" fill="black"/>
<path d="M0.764709 134.098V176.522H43.1889V134.098H0.764709ZM37.1283 170.462H6.82531V140.159H37.1283V170.462Z" fill="black"/>
<path d="M31.0677 146.219H12.8859V164.401H31.0677V146.219Z" fill="black"/>
</svg>
